<mxfile host="app.diagrams.net" modified="2023-01-12T07:33:34.279Z" agent="5.0 (Windows NT 10.0; Win64; x64) AppleWebKit/537.36 (KHTML, like Gecko) Chrome/108.0.0.0 Safari/537.36" version="20.8.4" etag="z0nF7fn1CGizYkwwTjR4" type="github">
  <diagram id="NYKB6-BuOTAKlO2avmCD" name="第 1 页">
    <mxGraphModel dx="1434" dy="764" grid="1" gridSize="10" guides="1" tooltips="1" connect="1" arrows="1" fold="1" page="1" pageScale="1" pageWidth="827" pageHeight="1169" math="0" shadow="0">
      <root>
        <mxCell id="0" />
        <mxCell id="1" parent="0" />
        <mxCell id="sT3eWaTCgVUYger8NRqr-3" value="" style="ellipse;whiteSpace=wrap;html=1;fillColor=#FF0000;" vertex="1" parent="1">
          <mxGeometry x="200" y="120" width="50" height="50" as="geometry" />
        </mxCell>
        <mxCell id="sT3eWaTCgVUYger8NRqr-4" value="" style="ellipse;whiteSpace=wrap;html=1;fillColor=#FF0000;" vertex="1" parent="1">
          <mxGeometry x="250" y="200" width="50" height="51" as="geometry" />
        </mxCell>
        <mxCell id="sT3eWaTCgVUYger8NRqr-5" value="" style="endArrow=none;html=1;rounded=0;exitX=0.3;exitY=0.059;exitDx=0;exitDy=0;entryX=1;entryY=1;entryDx=0;entryDy=0;exitPerimeter=0;strokeWidth=3;" edge="1" parent="1" source="sT3eWaTCgVUYger8NRqr-4" target="sT3eWaTCgVUYger8NRqr-3">
          <mxGeometry width="50" height="50" relative="1" as="geometry">
            <mxPoint x="390" y="370" as="sourcePoint" />
            <mxPoint x="440" y="320" as="targetPoint" />
          </mxGeometry>
        </mxCell>
        <mxCell id="sT3eWaTCgVUYger8NRqr-6" value="" style="ellipse;whiteSpace=wrap;html=1;fillColor=#FF0000;" vertex="1" parent="1">
          <mxGeometry x="260" y="270" width="50" height="51" as="geometry" />
        </mxCell>
        <mxCell id="sT3eWaTCgVUYger8NRqr-7" value="" style="ellipse;whiteSpace=wrap;html=1;fillColor=#FF0000;" vertex="1" parent="1">
          <mxGeometry x="389" y="290" width="50" height="51" as="geometry" />
        </mxCell>
        <mxCell id="sT3eWaTCgVUYger8NRqr-8" value="" style="ellipse;whiteSpace=wrap;html=1;fillColor=#FF0000;" vertex="1" parent="1">
          <mxGeometry x="120" y="290" width="50" height="51" as="geometry" />
        </mxCell>
        <mxCell id="sT3eWaTCgVUYger8NRqr-9" value="" style="endArrow=none;html=1;rounded=0;entryX=0.7;entryY=0.974;entryDx=0;entryDy=0;strokeWidth=3;entryPerimeter=0;exitX=0.5;exitY=0;exitDx=0;exitDy=0;" edge="1" parent="1" source="sT3eWaTCgVUYger8NRqr-6" target="sT3eWaTCgVUYger8NRqr-4">
          <mxGeometry width="50" height="50" relative="1" as="geometry">
            <mxPoint x="392" y="210" as="sourcePoint" />
            <mxPoint x="369.9976695296637" y="169.9976695296636" as="targetPoint" />
          </mxGeometry>
        </mxCell>
        <mxCell id="sT3eWaTCgVUYger8NRqr-10" value="" style="edgeStyle=none;orthogonalLoop=1;jettySize=auto;html=1;rounded=0;labelBackgroundColor=default;strokeColor=default;strokeWidth=3;fontFamily=Helvetica;fontSize=11;fontColor=default;endArrow=none;shape=connector;exitX=1;exitY=0.5;exitDx=0;exitDy=0;entryX=0;entryY=0.5;entryDx=0;entryDy=0;" edge="1" parent="1" source="sT3eWaTCgVUYger8NRqr-8" target="sT3eWaTCgVUYger8NRqr-6">
          <mxGeometry width="100" relative="1" as="geometry">
            <mxPoint x="190" y="325.08000000000004" as="sourcePoint" />
            <mxPoint x="267" y="313" as="targetPoint" />
            <Array as="points" />
          </mxGeometry>
        </mxCell>
        <mxCell id="sT3eWaTCgVUYger8NRqr-11" value="" style="edgeStyle=none;orthogonalLoop=1;jettySize=auto;html=1;rounded=0;labelBackgroundColor=default;strokeColor=default;strokeWidth=3;fontFamily=Helvetica;fontSize=11;fontColor=default;endArrow=none;shape=connector;exitX=1;exitY=0.5;exitDx=0;exitDy=0;entryX=0.02;entryY=0.386;entryDx=0;entryDy=0;entryPerimeter=0;" edge="1" parent="1" source="sT3eWaTCgVUYger8NRqr-6" target="sT3eWaTCgVUYger8NRqr-7">
          <mxGeometry width="100" relative="1" as="geometry">
            <mxPoint x="340" y="420" as="sourcePoint" />
            <mxPoint x="440" y="420" as="targetPoint" />
            <Array as="points" />
          </mxGeometry>
        </mxCell>
        <mxCell id="sT3eWaTCgVUYger8NRqr-12" value="" style="ellipse;whiteSpace=wrap;html=1;fillColor=#FF0000;" vertex="1" parent="1">
          <mxGeometry x="260" y="400" width="50" height="51" as="geometry" />
        </mxCell>
        <mxCell id="sT3eWaTCgVUYger8NRqr-13" value="" style="edgeStyle=none;orthogonalLoop=1;jettySize=auto;html=1;rounded=0;labelBackgroundColor=default;strokeColor=default;strokeWidth=3;fontFamily=Helvetica;fontSize=11;fontColor=default;endArrow=none;shape=connector;exitX=0.5;exitY=0;exitDx=0;exitDy=0;entryX=0.5;entryY=1;entryDx=0;entryDy=0;" edge="1" parent="1" source="sT3eWaTCgVUYger8NRqr-12" target="sT3eWaTCgVUYger8NRqr-6">
          <mxGeometry width="100" relative="1" as="geometry">
            <mxPoint x="340" y="500" as="sourcePoint" />
            <mxPoint x="440" y="500" as="targetPoint" />
            <Array as="points" />
          </mxGeometry>
        </mxCell>
        <mxCell id="sT3eWaTCgVUYger8NRqr-14" value="" style="ellipse;whiteSpace=wrap;html=1;fillColor=#FF0000;" vertex="1" parent="1">
          <mxGeometry x="389" y="410" width="50" height="51" as="geometry" />
        </mxCell>
        <mxCell id="sT3eWaTCgVUYger8NRqr-15" value="" style="edgeStyle=none;orthogonalLoop=1;jettySize=auto;html=1;rounded=0;labelBackgroundColor=default;strokeColor=default;strokeWidth=3;fontFamily=Helvetica;fontSize=11;fontColor=default;endArrow=none;shape=connector;exitX=1;exitY=1;exitDx=0;exitDy=0;" edge="1" parent="1" source="sT3eWaTCgVUYger8NRqr-7" target="sT3eWaTCgVUYger8NRqr-14">
          <mxGeometry width="100" relative="1" as="geometry">
            <mxPoint x="520" y="450" as="sourcePoint" />
            <mxPoint x="620" y="450" as="targetPoint" />
            <Array as="points" />
          </mxGeometry>
        </mxCell>
        <mxCell id="sT3eWaTCgVUYger8NRqr-16" value="" style="ellipse;whiteSpace=wrap;html=1;fillColor=#FF0000;" vertex="1" parent="1">
          <mxGeometry x="130" y="450" width="50" height="51" as="geometry" />
        </mxCell>
        <mxCell id="sT3eWaTCgVUYger8NRqr-17" value="" style="edgeStyle=none;orthogonalLoop=1;jettySize=auto;html=1;rounded=0;labelBackgroundColor=default;strokeColor=default;strokeWidth=3;fontFamily=Helvetica;fontSize=11;fontColor=default;endArrow=none;shape=connector;exitX=1;exitY=0.5;exitDx=0;exitDy=0;" edge="1" parent="1" source="sT3eWaTCgVUYger8NRqr-16" target="sT3eWaTCgVUYger8NRqr-14">
          <mxGeometry width="100" relative="1" as="geometry">
            <mxPoint x="500" y="580" as="sourcePoint" />
            <mxPoint x="600" y="580" as="targetPoint" />
            <Array as="points" />
          </mxGeometry>
        </mxCell>
        <mxCell id="sT3eWaTCgVUYger8NRqr-18" value="" style="ellipse;whiteSpace=wrap;html=1;fillColor=#FF0000;" vertex="1" parent="1">
          <mxGeometry x="70" y="370" width="50" height="51" as="geometry" />
        </mxCell>
        <mxCell id="sT3eWaTCgVUYger8NRqr-19" value="" style="ellipse;whiteSpace=wrap;html=1;fillColor=#FF0000;" vertex="1" parent="1">
          <mxGeometry x="20" y="450" width="50" height="51" as="geometry" />
        </mxCell>
        <mxCell id="sT3eWaTCgVUYger8NRqr-20" value="" style="edgeStyle=none;orthogonalLoop=1;jettySize=auto;html=1;rounded=0;labelBackgroundColor=default;strokeColor=default;strokeWidth=3;fontFamily=Helvetica;fontSize=11;fontColor=default;endArrow=none;shape=connector;exitX=0.712;exitY=0.024;exitDx=0;exitDy=0;exitPerimeter=0;" edge="1" parent="1" source="sT3eWaTCgVUYger8NRqr-19" target="sT3eWaTCgVUYger8NRqr-18">
          <mxGeometry width="100" relative="1" as="geometry">
            <mxPoint x="83" y="447" as="sourcePoint" />
            <mxPoint x="260" y="570" as="targetPoint" />
            <Array as="points" />
          </mxGeometry>
        </mxCell>
        <mxCell id="sT3eWaTCgVUYger8NRqr-21" value="" style="edgeStyle=none;orthogonalLoop=1;jettySize=auto;html=1;rounded=0;labelBackgroundColor=default;strokeColor=default;strokeWidth=3;fontFamily=Helvetica;fontSize=11;fontColor=default;endArrow=none;shape=connector;exitX=0.677;exitY=0.061;exitDx=0;exitDy=0;exitPerimeter=0;" edge="1" parent="1" source="sT3eWaTCgVUYger8NRqr-18">
          <mxGeometry width="100" relative="1" as="geometry">
            <mxPoint x="130" y="370" as="sourcePoint" />
            <mxPoint x="127" y="334" as="targetPoint" />
            <Array as="points" />
          </mxGeometry>
        </mxCell>
        <mxCell id="sT3eWaTCgVUYger8NRqr-22" value="" style="ellipse;whiteSpace=wrap;html=1;fillColor=#FF0000;" vertex="1" parent="1">
          <mxGeometry x="260" y="570" width="50" height="51" as="geometry" />
        </mxCell>
        <mxCell id="sT3eWaTCgVUYger8NRqr-23" value="" style="edgeStyle=none;orthogonalLoop=1;jettySize=auto;html=1;rounded=0;labelBackgroundColor=default;strokeColor=default;strokeWidth=3;fontFamily=Helvetica;fontSize=11;fontColor=default;endArrow=none;shape=connector;exitX=0.5;exitY=0;exitDx=0;exitDy=0;entryX=0.5;entryY=1;entryDx=0;entryDy=0;" edge="1" parent="1" source="sT3eWaTCgVUYger8NRqr-22" target="sT3eWaTCgVUYger8NRqr-12">
          <mxGeometry width="100" relative="1" as="geometry">
            <mxPoint x="370" y="620" as="sourcePoint" />
            <mxPoint x="470" y="620" as="targetPoint" />
            <Array as="points" />
          </mxGeometry>
        </mxCell>
        <mxCell id="sT3eWaTCgVUYger8NRqr-24" value="" style="ellipse;whiteSpace=wrap;html=1;fillColor=#FF0000;" vertex="1" parent="1">
          <mxGeometry x="364" y="570" width="50" height="51" as="geometry" />
        </mxCell>
        <mxCell id="sT3eWaTCgVUYger8NRqr-25" value="" style="ellipse;whiteSpace=wrap;html=1;fillColor=#FF0000;" vertex="1" parent="1">
          <mxGeometry x="156" y="570" width="50" height="51" as="geometry" />
        </mxCell>
        <mxCell id="sT3eWaTCgVUYger8NRqr-26" value="" style="edgeStyle=none;orthogonalLoop=1;jettySize=auto;html=1;rounded=0;labelBackgroundColor=default;strokeColor=default;strokeWidth=3;fontFamily=Helvetica;fontSize=11;fontColor=default;endArrow=none;shape=connector;entryX=0;entryY=0.5;entryDx=0;entryDy=0;exitX=1;exitY=0.5;exitDx=0;exitDy=0;" edge="1" parent="1" source="sT3eWaTCgVUYger8NRqr-25" target="sT3eWaTCgVUYger8NRqr-22">
          <mxGeometry width="100" relative="1" as="geometry">
            <mxPoint x="220" y="595.0699999999999" as="sourcePoint" />
            <mxPoint x="320" y="595.0699999999999" as="targetPoint" />
            <Array as="points" />
          </mxGeometry>
        </mxCell>
        <mxCell id="sT3eWaTCgVUYger8NRqr-27" value="" style="edgeStyle=none;orthogonalLoop=1;jettySize=auto;html=1;rounded=0;labelBackgroundColor=default;strokeColor=default;strokeWidth=3;fontFamily=Helvetica;fontSize=11;fontColor=default;endArrow=none;shape=connector;exitX=1;exitY=0.5;exitDx=0;exitDy=0;entryX=0;entryY=0.5;entryDx=0;entryDy=0;" edge="1" parent="1" source="sT3eWaTCgVUYger8NRqr-22" target="sT3eWaTCgVUYger8NRqr-24">
          <mxGeometry width="100" relative="1" as="geometry">
            <mxPoint x="270" y="730" as="sourcePoint" />
            <mxPoint x="370" y="730" as="targetPoint" />
            <Array as="points" />
          </mxGeometry>
        </mxCell>
        <mxCell id="sT3eWaTCgVUYger8NRqr-28" value="" style="ellipse;whiteSpace=wrap;html=1;fillColor=#FF0000;" vertex="1" parent="1">
          <mxGeometry x="140" y="840" width="50" height="51" as="geometry" />
        </mxCell>
        <mxCell id="sT3eWaTCgVUYger8NRqr-29" value="" style="ellipse;whiteSpace=wrap;html=1;fillColor=#FF0000;" vertex="1" parent="1">
          <mxGeometry x="380" y="840" width="50" height="51" as="geometry" />
        </mxCell>
        <mxCell id="sT3eWaTCgVUYger8NRqr-30" value="" style="edgeStyle=none;orthogonalLoop=1;jettySize=auto;html=1;rounded=0;labelBackgroundColor=default;strokeColor=default;strokeWidth=3;fontFamily=Helvetica;fontSize=11;fontColor=default;endArrow=none;shape=connector;exitX=0.5;exitY=0;exitDx=0;exitDy=0;" edge="1" parent="1" source="sT3eWaTCgVUYger8NRqr-28" target="sT3eWaTCgVUYger8NRqr-25">
          <mxGeometry width="100" relative="1" as="geometry">
            <mxPoint x="250" y="770" as="sourcePoint" />
            <mxPoint x="350" y="770" as="targetPoint" />
            <Array as="points" />
          </mxGeometry>
        </mxCell>
        <mxCell id="sT3eWaTCgVUYger8NRqr-31" value="" style="edgeStyle=none;orthogonalLoop=1;jettySize=auto;html=1;rounded=0;labelBackgroundColor=default;strokeColor=default;strokeWidth=3;fontFamily=Helvetica;fontSize=11;fontColor=default;endArrow=none;shape=connector;exitX=0.5;exitY=1;exitDx=0;exitDy=0;" edge="1" parent="1" source="sT3eWaTCgVUYger8NRqr-24" target="sT3eWaTCgVUYger8NRqr-29">
          <mxGeometry width="100" relative="1" as="geometry">
            <mxPoint x="350" y="790" as="sourcePoint" />
            <mxPoint x="450" y="790" as="targetPoint" />
            <Array as="points" />
          </mxGeometry>
        </mxCell>
        <mxCell id="sT3eWaTCgVUYger8NRqr-32" value="" style="ellipse;whiteSpace=wrap;html=1;fillColor=#FF0000;" vertex="1" parent="1">
          <mxGeometry x="140" y="1010" width="50" height="51" as="geometry" />
        </mxCell>
        <mxCell id="sT3eWaTCgVUYger8NRqr-33" value="" style="ellipse;whiteSpace=wrap;html=1;fillColor=#FF0000;" vertex="1" parent="1">
          <mxGeometry x="380" y="1010" width="50" height="51" as="geometry" />
        </mxCell>
        <mxCell id="sT3eWaTCgVUYger8NRqr-34" value="" style="edgeStyle=none;orthogonalLoop=1;jettySize=auto;html=1;rounded=0;labelBackgroundColor=default;strokeColor=default;strokeWidth=3;fontFamily=Helvetica;fontSize=11;fontColor=default;endArrow=none;shape=connector;exitX=0.5;exitY=0;exitDx=0;exitDy=0;entryX=0.5;entryY=1;entryDx=0;entryDy=0;" edge="1" parent="1" source="sT3eWaTCgVUYger8NRqr-32" target="sT3eWaTCgVUYger8NRqr-28">
          <mxGeometry width="100" relative="1" as="geometry">
            <mxPoint x="200" y="1050" as="sourcePoint" />
            <mxPoint x="300" y="1050" as="targetPoint" />
            <Array as="points" />
          </mxGeometry>
        </mxCell>
        <mxCell id="sT3eWaTCgVUYger8NRqr-35" value="" style="edgeStyle=none;orthogonalLoop=1;jettySize=auto;html=1;rounded=0;labelBackgroundColor=default;strokeColor=default;strokeWidth=3;fontFamily=Helvetica;fontSize=11;fontColor=default;endArrow=none;shape=connector;exitX=0.5;exitY=0;exitDx=0;exitDy=0;entryX=0.5;entryY=1;entryDx=0;entryDy=0;" edge="1" parent="1" source="sT3eWaTCgVUYger8NRqr-33" target="sT3eWaTCgVUYger8NRqr-29">
          <mxGeometry width="100" relative="1" as="geometry">
            <mxPoint x="340" y="1040" as="sourcePoint" />
            <mxPoint x="440" y="1040" as="targetPoint" />
            <Array as="points" />
          </mxGeometry>
        </mxCell>
        <mxCell id="sT3eWaTCgVUYger8NRqr-36" value="" style="ellipse;whiteSpace=wrap;html=1;fillColor=#FF0000;" vertex="1" parent="1">
          <mxGeometry x="70" y="1020" width="50" height="51" as="geometry" />
        </mxCell>
        <mxCell id="sT3eWaTCgVUYger8NRqr-37" value="" style="ellipse;whiteSpace=wrap;html=1;fillColor=#FF0000;" vertex="1" parent="1">
          <mxGeometry x="310" y="1020" width="50" height="51" as="geometry" />
        </mxCell>
        <mxCell id="sT3eWaTCgVUYger8NRqr-38" value="" style="edgeStyle=none;orthogonalLoop=1;jettySize=auto;html=1;rounded=0;labelBackgroundColor=default;strokeColor=default;strokeWidth=3;fontFamily=Helvetica;fontSize=11;fontColor=default;endArrow=none;shape=connector;exitX=1;exitY=0.5;exitDx=0;exitDy=0;entryX=0.033;entryY=0.647;entryDx=0;entryDy=0;entryPerimeter=0;" edge="1" parent="1" source="sT3eWaTCgVUYger8NRqr-36" target="sT3eWaTCgVUYger8NRqr-32">
          <mxGeometry width="100" relative="1" as="geometry">
            <mxPoint x="110" y="1180" as="sourcePoint" />
            <mxPoint x="210" y="1180" as="targetPoint" />
            <Array as="points" />
          </mxGeometry>
        </mxCell>
        <mxCell id="sT3eWaTCgVUYger8NRqr-39" value="" style="edgeStyle=none;orthogonalLoop=1;jettySize=auto;html=1;rounded=0;labelBackgroundColor=default;strokeColor=default;strokeWidth=3;fontFamily=Helvetica;fontSize=11;fontColor=default;endArrow=none;shape=connector;exitX=1;exitY=0.5;exitDx=0;exitDy=0;entryX=0;entryY=0.5;entryDx=0;entryDy=0;" edge="1" parent="1" source="sT3eWaTCgVUYger8NRqr-37" target="sT3eWaTCgVUYger8NRqr-33">
          <mxGeometry width="100" relative="1" as="geometry">
            <mxPoint x="290" y="1200" as="sourcePoint" />
            <mxPoint x="390" y="1200" as="targetPoint" />
            <Array as="points" />
          </mxGeometry>
        </mxCell>
      </root>
    </mxGraphModel>
  </diagram>
</mxfile>
